<?xml version="1.0" encoding="utf-8"?>
<!-- Generator: Adobe Illustrator 23.1.0, SVG Export Plug-In . SVG Version: 6.00 Build 0)  -->
<svg version="1.1" id="Capa_1" xmlns="http://www.w3.org/2000/svg" xmlns:xlink="http://www.w3.org/1999/xlink" x="0px" y="0px"
	 viewBox="0 0 287 337" style="enable-background:new 0 0 287 337;" xml:space="preserve">
<style type="text/css">
	.st0{fill:#2C2C2C;}
	.st1{fill:none;stroke:#2C2C2C;stroke-width:3;stroke-miterlimit:10;}
</style>
<path class="st0" d="M143.6,0.6C222.8,0.6,287,64.8,287,144c0,63.4-41.9,119.4-102.5,137.4l-40.9,56l-40.8-56
	C42.1,263.3,0.2,207.3,0.2,144C0.2,64.8,64.4,0.6,143.6,0.6 M143.6,36.7c-59.2,0-107.2,48-107.2,107.3c0,54.7,36.3,93.1,87.8,105.7
	l19.5,26.7l19.5-26.7c51.4-12.6,87.8-51,87.8-105.7C250.9,84.7,202.9,36.7,143.6,36.7"/>
<path class="st0" d="M171,114.8c3-0.4,5.4-0.7,7.8-1.1c2.4-0.3,3.7,0.4,4.6,2.5c1.8,4.4,3.6,8.8,5.3,13.2c0.9,2.3,0.5,3.5-1.4,5
	c-2,1.5-4.1,3-6,4.6c-0.5,0.4-0.9,1.2-0.9,1.9c-0.1,1.4,0.2,2.9-0.1,4.3c-0.4,2.2,0.5,3.6,2.3,4.7c1.7,1.1,3.2,2.4,4.7,3.6
	c1.7,1.4,2.1,2.7,1.3,4.7c-1.9,4.5-3.8,8.9-5.6,13.4c-0.8,1.8-2.1,2.6-4,2.3c-2.6-0.3-5.1-0.8-7.7-1c-0.8-0.1-1.7,0.3-2.3,0.8
	c-1.5,1.2-2.9,2.6-4.1,4c-0.5,0.5-0.8,1.4-0.8,2.1c0.2,2.6,0.6,5.1,0.9,7.7c0.2,2.3-0.4,3.3-2.5,4.2c-4.4,1.8-8.9,3.6-13.3,5.4
	c-2.1,0.8-3.3,0.5-4.7-1.3c-1.5-1.9-2.9-3.8-4.3-5.8c-0.7-1.1-1.5-1.5-2.8-1.4c-1.2,0.1-2.4,0.3-3.6,0c-2.4-0.5-3.8,0.5-5,2.4
	c-1.1,1.7-2.4,3.3-3.7,4.8c-1.2,1.4-2.6,1.8-4.3,1.1c-4.6-1.9-9.2-3.9-13.7-5.8c-1.7-0.7-2.4-2.1-2.2-3.9c0.3-2.5,0.7-5,1.1-7.5
	c0.2-1.2,0-2-1-2.8c-1.4-1.2-2.5-2.6-3.8-3.8c-0.5-0.5-1.4-0.8-2.1-0.8c-2.5,0.2-5,0.6-7.5,0.9c-2.5,0.3-3.5-0.4-4.4-2.7
	c-1.8-4.4-3.6-8.8-5.3-13.2c-0.8-2.1-0.5-3.4,1.3-4.7c1.9-1.5,3.9-3,5.9-4.4c0.9-0.7,1.3-1.4,1.2-2.5c-0.1-1.6-0.2-3.3,0-4.8
	c0.2-1.5-0.3-2.4-1.6-3.3c-1.9-1.3-3.6-2.8-5.4-4.2c-1.8-1.4-2.1-2.7-1.2-4.9c1.8-4.4,3.7-8.7,5.5-13.1c1-2.2,2.1-2.9,4.5-2.5
	c2.5,0.4,5,0.8,7.5,1.1c0.6,0.1,1.5-0.3,2-0.7c0.9-0.7,1.6-1.9,2.6-2.5c2.4-1.5,2.8-3.6,2.2-6.1c-0.4-1.8-0.5-3.7-0.7-5.5
	c-0.2-1.9,0.6-3.2,2.4-3.9c4.4-1.8,8.9-3.6,13.3-5.4c2.2-0.9,3.5-0.5,5,1.5c1.5,2,3,4.1,4.5,6c0.4,0.5,1.2,0.8,1.9,0.9
	c0.7,0.1,1.6-0.2,2.3,0c3.7,0.8,6.1-0.7,7.9-3.8c0.7-1.2,1.7-2.2,2.5-3.3c1.1-1.5,2.6-1.9,4.3-1.2c4.6,1.9,9.3,3.9,13.9,5.9
	c1.7,0.7,2.4,2.1,2.1,3.9c-0.4,2.6-0.8,5.2-1.1,7.8c-0.1,0.7,0.3,1.6,0.8,2.1c1.2,1.4,2.5,2.7,3.9,4
	C169.9,114.3,170.7,114.6,171,114.8 M147.6,193.1c4-1.6,7.8-3.2,11.7-4.7c1.2-0.4,1.4-1.1,1.2-2.2c-0.4-2.5-0.7-5.1-1-7.7
	c-0.2-1.3,0.2-2.2,1.2-3.1c2.1-1.9,4.1-3.9,6-5.9c0.9-0.9,1.7-1.3,3-1.1c2.7,0.4,5.3,0.7,8,1.2c1,0.2,1.5-0.1,1.9-1.1
	c1.4-3.5,2.9-7,4.4-10.4c0.5-1.1,0.2-1.6-0.7-2.2c-2.1-1.6-4.3-3.1-6.2-4.9c-0.7-0.6-1.2-1.8-1.3-2.7c-0.1-2.9,0.1-5.9,0-8.8
	c0-1.3,0.4-2.2,1.4-2.9c2.1-1.5,4.2-3.2,6.4-4.7c0.9-0.6,1-1.2,0.6-2.2c-1.5-3.4-2.8-6.9-4.2-10.3c-0.4-1-0.9-1.3-2-1.2
	c-2.6,0.4-5.2,0.6-7.8,1c-1.2,0.2-2.1-0.2-3-1.1c-1.9-2.1-3.9-4.2-6-6.2c-0.9-0.9-1.3-1.7-1.1-3c0.4-2.6,0.7-5.2,1.2-7.8
	c0.2-1-0.1-1.6-1.1-2.1c-3.5-1.4-7-2.9-10.4-4.4c-1-0.4-1.5-0.2-2.1,0.6c-1.6,2.1-3.2,4.2-4.8,6.3c-0.8,1.1-1.8,1.4-3.1,1.4
	c-2.8-0.1-5.6-0.1-8.4-0.1c-1.3,0-2.3-0.3-3-1.4c-1.5-2.1-3.1-4.1-4.6-6.2c-0.7-1-1.3-1.1-2.4-0.7c-3.4,1.4-6.7,2.8-10.2,4.1
	c-1.1,0.4-1.5,1-1.3,2.1c0.4,2.6,0.7,5.2,1,7.8c0.2,1.2-0.2,2.1-1.2,3c-2.1,1.9-4.1,3.9-6,5.9c-0.9,0.9-1.7,1.4-3,1.2
	c-2.7-0.4-5.3-0.7-8-1.2c-1-0.2-1.5,0.1-1.9,1c-1.4,3.6-2.9,7.1-4.5,10.6c-0.4,0.9-0.2,1.4,0.5,1.9c2.2,1.7,4.4,3.3,6.5,5.1
	c0.7,0.6,1.1,1.8,1.2,2.7c0.1,2.9-0.1,5.7,0,8.6c0,1.3-0.3,2.2-1.3,2.9c-2.2,1.6-4.3,3.2-6.5,4.8c-0.7,0.5-1,1-0.6,1.9
	c1.5,3.5,2.9,7,4.2,10.5c0.5,1.3,1.1,1.4,2.3,1.3c2.5-0.4,5.1-0.6,7.7-1c1.3-0.2,2.1,0.2,3,1.2c1.9,2.1,3.9,4.1,5.9,6
	c0.9,0.9,1.3,1.7,1.1,3c-0.4,2.7-0.7,5.3-1.2,8c-0.2,1,0.1,1.5,1.1,1.9c3.5,1.4,7,2.9,10.4,4.4c1.1,0.5,1.6,0.2,2.2-0.7
	c1.6-2.1,3.2-4.2,4.8-6.3c0.8-1.1,1.8-1.4,3.1-1.3c2.7,0.2,5.5,0.2,8.2,0.1c1.4-0.1,2.3,0.3,3.1,1.4
	C143.8,188.1,145.7,190.5,147.6,193.1"/>
<path class="st1" d="M171,114.8c3-0.4,5.4-0.7,7.8-1.1c2.4-0.3,3.7,0.4,4.6,2.5c1.8,4.4,3.6,8.8,5.3,13.2c0.9,2.3,0.5,3.5-1.4,5
	c-2,1.5-4.1,3-6,4.6c-0.5,0.4-0.9,1.2-0.9,1.9c-0.1,1.4,0.2,2.9-0.1,4.3c-0.4,2.2,0.5,3.6,2.3,4.7c1.7,1.1,3.2,2.4,4.7,3.6
	c1.7,1.4,2.1,2.7,1.3,4.7c-1.9,4.5-3.8,8.9-5.6,13.4c-0.8,1.8-2.1,2.6-4,2.3c-2.6-0.3-5.1-0.8-7.7-1c-0.8-0.1-1.7,0.3-2.3,0.8
	c-1.5,1.2-2.9,2.6-4.1,4c-0.5,0.5-0.8,1.4-0.8,2.1c0.2,2.6,0.6,5.1,0.9,7.7c0.2,2.3-0.4,3.3-2.5,4.2c-4.4,1.8-8.9,3.6-13.3,5.4
	c-2.1,0.8-3.3,0.5-4.7-1.3c-1.5-1.9-2.9-3.8-4.3-5.8c-0.7-1.1-1.5-1.5-2.8-1.4c-1.2,0.1-2.4,0.3-3.6,0c-2.4-0.5-3.8,0.5-5,2.4
	c-1.1,1.7-2.4,3.3-3.7,4.8c-1.2,1.4-2.6,1.8-4.3,1.1c-4.6-1.9-9.2-3.9-13.7-5.8c-1.7-0.7-2.4-2.1-2.2-3.9c0.3-2.5,0.7-5,1.1-7.5
	c0.2-1.2,0-2-1-2.8c-1.4-1.2-2.5-2.6-3.8-3.8c-0.5-0.5-1.4-0.8-2.1-0.8c-2.5,0.2-5,0.6-7.5,0.9c-2.5,0.3-3.5-0.4-4.4-2.7
	c-1.8-4.4-3.6-8.8-5.3-13.2c-0.8-2.1-0.5-3.4,1.3-4.7c1.9-1.5,3.9-3,5.9-4.4c0.9-0.7,1.3-1.4,1.2-2.5c-0.1-1.6-0.2-3.3,0-4.8
	c0.2-1.5-0.3-2.4-1.6-3.3c-1.9-1.3-3.6-2.8-5.4-4.2c-1.8-1.4-2.1-2.7-1.2-4.9c1.8-4.4,3.7-8.7,5.5-13.1c1-2.2,2.1-2.9,4.5-2.5
	c2.5,0.4,5,0.8,7.5,1.1c0.6,0.1,1.5-0.3,2-0.7c0.9-0.7,1.6-1.9,2.6-2.5c2.4-1.5,2.8-3.6,2.2-6.1c-0.4-1.8-0.5-3.7-0.7-5.5
	c-0.2-1.9,0.6-3.2,2.4-3.9c4.4-1.8,8.9-3.6,13.3-5.4c2.2-0.9,3.5-0.5,5,1.5c1.5,2,3,4.1,4.5,6c0.4,0.5,1.2,0.8,1.9,0.9
	c0.7,0.1,1.6-0.2,2.3,0c3.7,0.8,6.1-0.7,7.9-3.8c0.7-1.2,1.7-2.2,2.5-3.3c1.1-1.5,2.6-1.9,4.3-1.2c4.6,1.9,9.3,3.9,13.9,5.9
	c1.7,0.7,2.4,2.1,2.1,3.9c-0.4,2.6-0.8,5.2-1.1,7.8c-0.1,0.7,0.3,1.6,0.8,2.1c1.2,1.4,2.5,2.7,3.9,4
	C169.9,114.3,170.7,114.6,171,114.8z M147.6,193.1c4-1.6,7.8-3.2,11.7-4.7c1.2-0.4,1.4-1.1,1.2-2.2c-0.4-2.5-0.7-5.1-1-7.7
	c-0.2-1.3,0.2-2.2,1.2-3.1c2.1-1.9,4.1-3.9,6-5.9c0.9-0.9,1.7-1.3,3-1.1c2.7,0.4,5.3,0.7,8,1.2c1,0.2,1.5-0.1,1.9-1.1
	c1.4-3.5,2.9-7,4.4-10.4c0.5-1.1,0.2-1.6-0.7-2.2c-2.1-1.6-4.3-3.1-6.2-4.9c-0.7-0.6-1.2-1.8-1.3-2.7c-0.1-2.9,0.1-5.9,0-8.8
	c0-1.3,0.4-2.2,1.4-2.9c2.1-1.5,4.2-3.2,6.4-4.7c0.9-0.6,1-1.2,0.6-2.2c-1.5-3.4-2.8-6.9-4.2-10.3c-0.4-1-0.9-1.3-2-1.2
	c-2.6,0.4-5.2,0.6-7.8,1c-1.2,0.2-2.1-0.2-3-1.1c-1.9-2.1-3.9-4.2-6-6.2c-0.9-0.9-1.3-1.7-1.1-3c0.4-2.6,0.7-5.2,1.2-7.8
	c0.2-1-0.1-1.6-1.1-2.1c-3.5-1.4-7-2.9-10.4-4.4c-1-0.4-1.5-0.2-2.1,0.6c-1.6,2.1-3.2,4.2-4.8,6.3c-0.8,1.1-1.8,1.4-3.1,1.4
	c-2.8-0.1-5.6-0.1-8.4-0.1c-1.3,0-2.3-0.3-3-1.4c-1.5-2.1-3.1-4.1-4.6-6.2c-0.7-1-1.3-1.1-2.4-0.7c-3.4,1.4-6.7,2.8-10.2,4.1
	c-1.1,0.4-1.5,1-1.3,2.1c0.4,2.6,0.7,5.2,1,7.8c0.2,1.2-0.2,2.1-1.2,3c-2.1,1.9-4.1,3.9-6,5.9c-0.9,0.9-1.7,1.4-3,1.2
	c-2.7-0.4-5.3-0.7-8-1.2c-1-0.2-1.5,0.1-1.9,1c-1.4,3.6-2.9,7.1-4.5,10.6c-0.4,0.9-0.2,1.4,0.5,1.9c2.2,1.7,4.4,3.3,6.5,5.1
	c0.7,0.6,1.1,1.8,1.2,2.7c0.1,2.9-0.1,5.7,0,8.6c0,1.3-0.3,2.2-1.3,2.9c-2.2,1.6-4.3,3.2-6.5,4.8c-0.7,0.5-1,1-0.6,1.9
	c1.5,3.5,2.9,7,4.2,10.5c0.5,1.3,1.1,1.4,2.3,1.3c2.5-0.4,5.1-0.6,7.7-1c1.3-0.2,2.1,0.2,3,1.2c1.9,2.1,3.9,4.1,5.9,6
	c0.9,0.9,1.3,1.7,1.1,3c-0.4,2.7-0.7,5.3-1.2,8c-0.2,1,0.1,1.5,1.1,1.9c3.5,1.4,7,2.9,10.4,4.4c1.1,0.5,1.6,0.2,2.2-0.7
	c1.6-2.1,3.2-4.2,4.8-6.3c0.8-1.1,1.8-1.4,3.1-1.3c2.7,0.2,5.5,0.2,8.2,0.1c1.4-0.1,2.3,0.3,3.1,1.4
	C143.8,188.1,145.7,190.5,147.6,193.1z"/>
<path class="st0" d="M170.3,83.9c1.6,0.9,3.1,1.6,4.6,2.5c2.6,1.5,6.1,0,6.9-2.9c1.7-6.2,1-6,7.7-6c2,0,4,0,5.9-0.1
	c1.6,0,2.6,0.8,3.1,2.3c0.3,0.9,0.6,1.7,0.7,2.6c0.2,2.2,1.5,3.3,3.6,4.1c1.5,0.5,2.5,0.4,3.8-0.4c5-3.2,5.1-3.2,9.3,1
	c1.4,1.4,2.9,2.9,4.4,4.3c1.3,1.2,1.5,2.5,0.6,4.1c-0.6,1-1.1,2.1-1.8,3.1c-0.8,1.1-0.7,2.1-0.3,3.5c0.8,2.3,2.1,3.2,4.4,3.7
	c4.8,1,4.8,1.1,4.8,6.1c0,2.4,0,4.8,0.1,7.2c0,1.7-0.8,2.7-2.4,3.2c-0.8,0.2-1.6,0.6-2.4,0.7c-2.2,0.2-3.4,1.4-4.1,3.5
	c-0.5,1.5-0.7,2.6,0.3,3.8c0.2,0.3,0.4,0.6,0.6,0.9c2.5,4.3,2.5,4.3-1,7.9c-1.6,1.7-3.3,3.3-4.9,5c-1.2,1.3-2.6,1.4-4.1,0.5
	c-0.5-0.3-1.1-0.5-1.5-0.9c-2.3-2.1-4.7-1.6-7-0.2c-0.4,0.3-0.8,0.8-1,1.3c-0.4,0.9-0.3,2.1-0.9,2.9c-0.4,0.6-1.5,1.2-2.2,1.2
	c-1.2,0-1.7-1.1-1.5-2.2c0.3-1.7,0.7-3.4,1.3-5c0.2-0.6,1-1.1,1.6-1.5c1-0.5,2.2-0.7,3.1-1.3c2.5-1.8,4.7-1.2,7.1,0.4
	c2.6,1.7,2.7,1.6,4.9-0.7c1.2-1.2,3.1-2.4,3.3-3.9c0.2-1.3-1.4-2.9-2.3-4.3c-0.8-1.2-0.9-2.3-0.2-3.7c0.8-1.4,1.3-3,1.8-4.5
	c0.4-1.2,1.1-1.9,2.3-2.2c1.4-0.3,2.8-0.7,4.1-1.2c0.5-0.2,1-0.9,1.1-1.5c0.1-2-0.1-4,0-5.9c0-1.1-0.4-1.6-1.4-1.7
	c-3.9-0.4-6.2-2.2-7.7-6.2c-1.2-3-0.7-5,0.8-7.2c1.2-1.7,1.3-2.9-0.5-4.3c-1.5-1.1-2.6-3.3-4.1-3.5c-1.5-0.2-3.2,1.5-4.8,2.4
	c-1,0.6-1.9,0.7-3,0.1c-1.6-0.8-3.4-1.3-5-2.1c-0.8-0.4-1.3-1.2-1.9-1.9c-0.1-0.1-0.1-0.3-0.2-0.5c-0.5-1.6-0.6-3.9-1.7-4.7
	c-1.1-0.8-3.3-0.3-5.1-0.3c-0.3,0-0.6,0.1-0.9,0c-1.8-0.3-2.5,0.5-2.7,2.1c-0.4,3.4-2,5.4-5.5,6.7c-3,1.2-5.1,1.3-7.7-0.5
	c-2.2-1.5-2.3-1.4-4.4,0.6c-1,1-2.1,1.6-3.3,0.4c-1.2-1.2-0.6-2.3,0.4-3.3c0.8-0.8,1.5-1.7,2.4-2.4
	C168.6,84.7,169.4,84.4,170.3,83.9"/>
<path class="st1" d="M170.3,83.9c1.6,0.9,3.1,1.6,4.6,2.5c2.6,1.5,6.1,0,6.9-2.9c1.7-6.2,1-6,7.7-6c2,0,4,0,5.9-0.1
	c1.6,0,2.6,0.8,3.1,2.3c0.3,0.9,0.6,1.7,0.7,2.6c0.2,2.2,1.5,3.3,3.6,4.1c1.5,0.5,2.5,0.4,3.8-0.4c5-3.2,5.1-3.2,9.3,1
	c1.4,1.4,2.9,2.9,4.4,4.3c1.3,1.2,1.5,2.5,0.6,4.1c-0.6,1-1.1,2.1-1.8,3.1c-0.8,1.1-0.7,2.1-0.3,3.5c0.8,2.3,2.1,3.2,4.4,3.7
	c4.8,1,4.8,1.1,4.8,6.1c0,2.4,0,4.8,0.1,7.2c0,1.7-0.8,2.7-2.4,3.2c-0.8,0.2-1.6,0.6-2.4,0.7c-2.2,0.2-3.4,1.4-4.1,3.5
	c-0.5,1.5-0.7,2.6,0.3,3.8c0.2,0.3,0.4,0.6,0.6,0.9c2.5,4.3,2.5,4.3-1,7.9c-1.6,1.7-3.3,3.3-4.9,5c-1.2,1.3-2.6,1.4-4.1,0.5
	c-0.5-0.3-1.1-0.5-1.5-0.9c-2.3-2.1-4.7-1.6-7-0.2c-0.4,0.3-0.8,0.8-1,1.3c-0.4,0.9-0.3,2.1-0.9,2.9c-0.4,0.6-1.5,1.2-2.2,1.2
	c-1.2,0-1.7-1.1-1.5-2.2c0.3-1.7,0.7-3.4,1.3-5c0.2-0.6,1-1.1,1.6-1.5c1-0.5,2.2-0.7,3.1-1.3c2.5-1.8,4.7-1.2,7.1,0.4
	c2.6,1.7,2.7,1.6,4.9-0.7c1.2-1.2,3.1-2.4,3.3-3.9c0.2-1.3-1.4-2.9-2.3-4.3c-0.8-1.2-0.9-2.3-0.2-3.7c0.8-1.4,1.3-3,1.8-4.5
	c0.4-1.2,1.1-1.9,2.3-2.2c1.4-0.3,2.8-0.7,4.1-1.2c0.5-0.2,1-0.9,1.1-1.5c0.1-2-0.1-4,0-5.9c0-1.1-0.4-1.6-1.4-1.7
	c-3.9-0.4-6.2-2.2-7.7-6.2c-1.2-3-0.7-5,0.8-7.2c1.2-1.7,1.3-2.9-0.5-4.3c-1.5-1.1-2.6-3.3-4.1-3.5c-1.5-0.2-3.2,1.5-4.8,2.4
	c-1,0.6-1.9,0.7-3,0.1c-1.6-0.8-3.4-1.3-5-2.1c-0.8-0.4-1.3-1.2-1.9-1.9c-0.1-0.1-0.1-0.3-0.2-0.5c-0.5-1.6-0.6-3.9-1.7-4.7
	c-1.1-0.8-3.3-0.3-5.1-0.3c-0.3,0-0.6,0.1-0.9,0c-1.8-0.3-2.5,0.5-2.7,2.1c-0.4,3.4-2,5.4-5.5,6.7c-3,1.2-5.1,1.3-7.7-0.5
	c-2.2-1.5-2.3-1.4-4.4,0.6c-1,1-2.1,1.6-3.3,0.4c-1.2-1.2-0.6-2.3,0.4-3.3c0.8-0.8,1.5-1.7,2.4-2.4
	C168.6,84.7,169.4,84.4,170.3,83.9z"/>
<path class="st0" d="M192.8,209.6c-5.3-3.7-10.4-7.4-15.8-11.2c0,3.5,0,6.6,0,9.7c0,3.3-0.4,3.7-3.7,3.7c-20.1,0-40.3,0-60.4,0
	c-0.6,0-1.5,0.1-1.9-0.2c-0.6-0.5-1.2-1.5-1.1-2.1c0.1-0.7,1-1.5,1.7-1.7c1-0.3,2.1-0.1,3.2-0.1c18.8,0,37.5,0,56.3,0
	c0.5,0,0.9,0,1.6-0.1c0-0.7,0.1-1.3,0.1-1.9c0-3.6-0.1-7.2,0.1-10.8c0-0.8,0.6-1.9,1.2-2.3c0.6-0.3,1.8-0.1,2.4,0.4
	c7,4.9,14,9.9,21,14.9c1.8,1.3,1.7,2.8-0.1,4.1c-6.9,4.9-13.9,9.9-20.8,14.8c-1.4,1-2.7,0.9-3.4-0.3c-0.8-1.4-0.2-2.4,1-3.2
	c5.7-4,11.4-8.1,17.2-12.2C191.7,210.5,192.1,210.1,192.8,209.6"/>
<path class="st1" d="M192.8,209.6c-5.3-3.7-10.4-7.4-15.8-11.2c0,3.5,0,6.6,0,9.7c0,3.3-0.4,3.7-3.7,3.7c-20.1,0-40.3,0-60.4,0
	c-0.6,0-1.5,0.1-1.9-0.2c-0.6-0.5-1.2-1.5-1.1-2.1c0.1-0.7,1-1.5,1.7-1.7c1-0.3,2.1-0.1,3.2-0.1c18.8,0,37.5,0,56.3,0
	c0.5,0,0.9,0,1.6-0.1c0-0.7,0.1-1.3,0.1-1.9c0-3.6-0.1-7.2,0.1-10.8c0-0.8,0.6-1.9,1.2-2.3c0.6-0.3,1.8-0.1,2.4,0.4
	c7,4.9,14,9.9,21,14.9c1.8,1.3,1.7,2.8-0.1,4.1c-6.9,4.9-13.9,9.9-20.8,14.8c-1.4,1-2.7,0.9-3.4-0.3c-0.8-1.4-0.2-2.4,1-3.2
	c5.7-4,11.4-8.1,17.2-12.2C191.7,210.5,192.1,210.1,192.8,209.6z"/>
<path class="st0" d="M226.8,172.2c-4.3-3-8.4-6-13-9.2c0,2.7,0,4.9,0,7.2c0,4-0.1,4.1-4,4.1c-4.2,0-8.4,0-12.6,0
	c-1.9,0-3-0.8-2.9-2.2c0.2-1.7,1.3-2.1,2.8-2.1c3.4,0,6.8,0,10.2,0h2.1c0-0.9,0-1.5,0-2.2c0-2.8-0.1-5.5,0.1-8.3
	c0-0.9,0.5-2.1,1.2-2.5c0.6-0.3,1.9,0,2.6,0.5c3.7,2.5,7.3,5.2,11,7.8c2.2,1.6,4.4,3.1,6.6,4.7c2.1,1.5,2.1,2.9,0.1,4.4
	c-5.8,4.2-11.7,8.3-17.6,12.5c-1.2,0.8-2.4,1.3-3.5,0c-0.9-1-0.5-2.4,1-3.5c4.7-3.3,9.4-6.6,14.1-10
	C225.7,173.1,226.1,172.8,226.8,172.2"/>
<path class="st1" d="M226.8,172.2c-4.3-3-8.4-6-13-9.2c0,2.7,0,4.9,0,7.2c0,4-0.1,4.1-4,4.1c-4.2,0-8.4,0-12.6,0
	c-1.9,0-3-0.8-2.9-2.2c0.2-1.7,1.3-2.1,2.8-2.1c3.4,0,6.8,0,10.2,0h2.1c0-0.9,0-1.5,0-2.2c0-2.8-0.1-5.5,0.1-8.3
	c0-0.9,0.5-2.1,1.2-2.5c0.6-0.3,1.9,0,2.6,0.5c3.7,2.5,7.3,5.2,11,7.8c2.2,1.6,4.4,3.1,6.6,4.7c2.1,1.5,2.1,2.9,0.1,4.4
	c-5.8,4.2-11.7,8.3-17.6,12.5c-1.2,0.8-2.4,1.3-3.5,0c-0.9-1-0.5-2.4,1-3.5c4.7-3.3,9.4-6.6,14.1-10
	C225.7,173.1,226.1,172.8,226.8,172.2z"/>
<path class="st0" d="M150.4,65.6c-3-2.1-5.8-4.1-8.9-6.3c0,2.2,0,3.9,0,5.7c0,2.1-0.6,2.7-2.7,2.7c-7.5,0-15,0-22.5,0
	c-1.8,0-2.8-0.8-2.7-2.2c0.1-1.7,1.3-2.1,2.8-2.1c6.2,0,12.3,0,18.5,0h2.1c0.1-0.6,0.2-1.1,0.2-1.6c0-1.9-0.1-3.8,0.1-5.7
	c0.1-1,0.5-2.2,1.3-2.7c0.6-0.4,2,0,2.7,0.5c3.1,2,6.1,4.3,9.1,6.4c1.6,1.1,3.2,2.2,4.7,3.3c1.6,1.2,1.6,2.7,0,3.8
	c-4.7,3.4-9.5,6.7-14.2,10.1c-1.2,0.8-2.3,0.8-3.1-0.4c-0.8-1.2-0.4-2.3,0.7-3.1c3.4-2.4,6.7-4.8,10.1-7.2
	C149.1,66.6,149.6,66.2,150.4,65.6"/>
<path class="st1" d="M150.4,65.6c-3-2.1-5.8-4.1-8.9-6.3c0,2.2,0,3.9,0,5.7c0,2.1-0.6,2.7-2.7,2.7c-7.5,0-15,0-22.5,0
	c-1.8,0-2.8-0.8-2.7-2.2c0.1-1.7,1.3-2.1,2.8-2.1c6.2,0,12.3,0,18.5,0h2.1c0.1-0.6,0.2-1.1,0.2-1.6c0-1.9-0.1-3.8,0.1-5.7
	c0.1-1,0.5-2.2,1.3-2.7c0.6-0.4,2,0,2.7,0.5c3.1,2,6.1,4.3,9.1,6.4c1.6,1.1,3.2,2.2,4.7,3.3c1.6,1.2,1.6,2.7,0,3.8
	c-4.7,3.4-9.5,6.7-14.2,10.1c-1.2,0.8-2.3,0.8-3.1-0.4c-0.8-1.2-0.4-2.3,0.7-3.1c3.4-2.4,6.7-4.8,10.1-7.2
	C149.1,66.6,149.6,66.2,150.4,65.6z"/>
<path class="st0" d="M189.9,94.8c10.4,0.1,18.3,6.4,20.3,15.2c2.1,9.2-2.3,18.4-10.6,22.4c-0.8,0.4-1.7,0.7-2.5,1
	c-1.2,0.4-2.2,0-2.6-1.2c-0.4-1.2,0.1-2.1,1.3-2.6c0.6-0.2,1.1-0.4,1.7-0.7c5.9-2.6,9.6-8.5,9.3-15.1c-0.3-6.5-4.6-12.2-10.8-14.3
	c-6.1-2-12.8,0-16.9,4.9c-0.3,0.3-0.5,0.9-0.8,0.9c-0.8,0.2-2,0.6-2.5,0.2c-0.5-0.4-0.8-1.7-0.6-2.4c0.3-0.9,1.1-1.7,1.8-2.4
	C180.7,96.9,185.5,94.9,189.9,94.8"/>
<path class="st1" d="M189.9,94.8c10.4,0.1,18.3,6.4,20.3,15.2c2.1,9.2-2.3,18.4-10.6,22.4c-0.8,0.4-1.7,0.7-2.5,1
	c-1.2,0.4-2.2,0-2.6-1.2c-0.4-1.2,0.1-2.1,1.3-2.6c0.6-0.2,1.1-0.4,1.7-0.7c5.9-2.6,9.6-8.5,9.3-15.1c-0.3-6.5-4.6-12.2-10.8-14.3
	c-6.1-2-12.8,0-16.9,4.9c-0.3,0.3-0.5,0.9-0.8,0.9c-0.8,0.2-2,0.6-2.5,0.2c-0.5-0.4-0.8-1.7-0.6-2.4c0.3-0.9,1.1-1.7,1.8-2.4
	C180.7,96.9,185.5,94.9,189.9,94.8z"/>
<path class="st0" d="M72.2,174.4c-1.4,0-2.7,0-4.1,0c-1.4,0-2.4-0.7-2.3-2.1c0-1.4,1-2.1,2.4-2.1c2.8,0,5.6,0,8.4,0
	c1.4,0,2.3,0.8,2.3,2.2c0,1.4-0.9,2-2.3,2C75.1,174.4,73.6,174.4,72.2,174.4"/>
<path class="st1" d="M72.2,174.4c-1.4,0-2.7,0-4.1,0c-1.4,0-2.4-0.7-2.3-2.1c0-1.4,1-2.1,2.4-2.1c2.8,0,5.6,0,8.4,0
	c1.4,0,2.3,0.8,2.3,2.2c0,1.4-0.9,2-2.3,2C75.1,174.4,73.6,174.4,72.2,174.4z"/>
<path class="st0" d="M75.6,99.1c1.1,0,2.1,0,3.2,0c1.3,0.1,2,0.8,2,2.1c0,1.3-0.7,2.1-2,2.1c-2.3,0.1-4.5,0.1-6.8,0
	c-1.2-0.1-2-0.8-1.9-2.1c0-1.3,0.8-2,2-2C73.4,99.1,74.5,99.1,75.6,99.1"/>
<path class="st1" d="M75.6,99.1c1.1,0,2.1,0,3.2,0c1.3,0.1,2,0.8,2,2.1c0,1.3-0.7,2.1-2,2.1c-2.3,0.1-4.5,0.1-6.8,0
	c-1.2-0.1-2-0.8-1.9-2.1c0-1.3,0.8-2,2-2C73.4,99.1,74.5,99.1,75.6,99.1z"/>
<path class="st0" d="M89.7,211.7c-1,0-1.9,0-2.9,0c-1.3,0-2-0.7-2.1-2c-0.1-1.3,0.7-2.1,1.9-2.2c2.1-0.1,4.2-0.1,6.3,0
	c1.2,0.1,2,0.9,1.9,2.2c-0.1,1.3-0.9,1.9-2.1,2C91.6,211.8,90.7,211.7,89.7,211.7"/>
<path class="st1" d="M89.7,211.7c-1,0-1.9,0-2.9,0c-1.3,0-2-0.7-2.1-2c-0.1-1.3,0.7-2.1,1.9-2.2c2.1-0.1,4.2-0.1,6.3,0
	c1.2,0.1,2,0.9,1.9,2.2c-0.1,1.3-0.9,1.9-2.1,2C91.6,211.8,90.7,211.7,89.7,211.7z"/>
<path class="st0" d="M99.3,67.8c-0.8,0-1.7,0.1-2.5,0c-1.2-0.1-2.1-0.7-2.1-2c0-1.3,0.8-2.1,2.1-2.2c1.7-0.1,3.4-0.1,5,0
	c1.2,0,2,0.8,2.1,2c0,1.4-0.8,2.1-2.1,2.2C101,67.8,100.2,67.8,99.3,67.8"/>
<path class="st1" d="M99.3,67.8c-0.8,0-1.7,0.1-2.5,0c-1.2-0.1-2.1-0.7-2.1-2c0-1.3,0.8-2.1,2.1-2.2c1.7-0.1,3.4-0.1,5,0
	c1.2,0,2,0.8,2.1,2c0,1.4-0.8,2.1-2.1,2.2C101,67.8,100.2,67.8,99.3,67.8z"/>
<path class="st0" d="M135,172.4c-15.9-0.1-28.7-13.2-28.6-29.1c0.1-16,13.1-28.7,29.2-28.6c15.7,0.1,28.6,13.2,28.4,29.1
	C163.9,159.6,150.8,172.5,135,172.4 M159.8,143.5c0.1-13.6-11-24.6-24.7-24.7c-13.1-0.1-24.3,11-24.5,24.2c-0.1,13.7,11,25,24.6,25
	C148.6,168.2,159.7,157.1,159.8,143.5"/>
<path class="st1" d="M135,172.4c-15.9-0.1-28.7-13.2-28.6-29.1c0.1-16,13.1-28.7,29.2-28.6c15.7,0.1,28.6,13.2,28.4,29.1
	C163.9,159.6,150.8,172.5,135,172.4z M159.8,143.5c0.1-13.6-11-24.6-24.7-24.7c-13.1-0.1-24.3,11-24.5,24.2c-0.1,13.7,11,25,24.6,25
	C148.6,168.2,159.7,157.1,159.8,143.5z"/>
</svg>
