<?xml version="1.0" encoding="utf-8"?>
<!-- Generator: Adobe Illustrator 23.1.0, SVG Export Plug-In . SVG Version: 6.00 Build 0)  -->
<svg version="1.1" id="Capa_1" xmlns="http://www.w3.org/2000/svg" xmlns:xlink="http://www.w3.org/1999/xlink" x="0px" y="0px"
	 viewBox="0 0 149.2 139" style="enable-background:new 0 0 149.2 139;" xml:space="preserve">
<style type="text/css">
	.st0{fill:#FFFFFF;}
</style>
<path class="st0" d="M0.1,32.2c0.7-0.8,1.5-1.6,2.2-2.3c10-9.5,19.9-18.9,29.9-28.4c2.1-2,3.1-2,5.2,0c2.8,2.7,5.7,5.4,8.5,8.1
	c1.7,1.6,1.7,2.7,0,4.3c-0.9,0.8-1.8,1.5-2.8,2.5c0.8,0.6,1.3,0.9,1.9,1.4c2.5-1.5,5.4-1.6,8.3-1c3,0.6,5.3,2.2,7.4,4.2
	c3.7,3.6,7.5,7.1,11.3,10.7c0.8-0.9,1.6-1.7,2.3-2.5c2.4-2.7,4.9-5.4,7.3-8.1c4.3-4.7,9.6-6.2,15.9-4.8c1.5,0.3,2.9,0.7,4.4,1
	c0.4,0.1,1,0,1.4-0.3c1.1-0.8,2.1-1.8,3.1-2.7c-0.3-0.4-0.4-0.6-0.6-0.8c-1.1-1.3-1.1-2.3,0.1-3.6c2.9-3,5.8-6,8.7-8.9
	c1.4-1.4,2.7-1.4,4.4,0.2c5.5,5.2,11,10.4,16.5,15.6c4,3.8,8.1,7.7,12.1,11.5c1.8,1.7,1.8,2.8,0,4.5c-2.8,2.7-5.6,5.3-8.5,8
	c-1.8,1.7-2.2,1.8-4.8,1c-1.2,2-2.5,3.9-3.6,6c-0.3,0.6-0.3,1.5-0.1,2.2c0.9,3.8,0.1,7.2-2.7,10.1c-4.4,4.6-8.8,9.1-13.2,13.6
	c-2.1,2.2-4.8,3.4-8,3.9v1.5c0,8.4,0,16.7,0,25.1c0,5-1.8,9.1-5.8,12.2c-0.9,0.7-1.7,1.6-2.7,2.3c-1.3,0.9-1.8,2-1.2,3.6
	c0.6,0,1.3,0,2,0c1.7,0.1,2.7,0.9,2.7,2.5c0.1,3.9,0.1,7.7,0,11.6c0,1.4-0.9,2.2-2.5,2.4c-0.4,0.1-0.9,0-1.3,0
	c-14.8,0-29.7,0-44.5,0c-3.1,0-3.8-0.6-3.8-3.7c0-3.2,0-6.3,0-9.5c0-2.6,0.7-3.3,3.5-3.3c0.4,0,0.9,0,1.4-0.1c0-2.4-0.9-4.4-3.1-5.6
	c-2.1-1.2-4-2.6-5.2-4.7c-1.2-2-1.6-4.1-1.6-6.4c0-5.4,0-10.9,0-16.3c0-0.8-0.4-1.7-1-2.3c-6.4-6.4-12.9-12.7-19.4-19
	c-4.5-4.3-6-9.3-4.3-15.2c0.4-1.5,1.3-3.1,0.9-4.4c-0.4-1.3-2-2.2-3.1-3.3c-0.8-0.8-1.5-1.5-2.4-2.3c-0.4,0.4-0.8,0.7-1.1,1
	c-1.2,1-2.5,1.1-3.6,0c-3.3-3.1-6.6-6.2-9.9-9.4c-0.3-0.3-0.5-0.7-0.7-1V32.2z M79.5,82.4v-1.8c0-12.2,0-24.5,0-36.7
	c0-0.7,0-1.4-0.2-2.1c-0.7-2.7-3.9-3.7-6-2c-1.1,0.9-1.3,2.2-1.3,3.5c0,12.4,0,24.7,0,37.1v1.8h-5v-1.7c0-10.8,0-21.5,0-32.3
	c0-0.6,0-1.2-0.1-1.8c-0.3-2.2-2.6-3.4-4.8-2.7c-1.8,0.6-2.5,1.9-2.5,4.3c0,13.9,0,27.9,0,41.8v1.6h-5V77.3
	c-2.7,0.7-4.8,3.1-4.9,5.9c-0.1,7.8-0.1,15.5,0,23.3c0,2.3,1.2,4.1,3.2,5.4c1.2,0.8,2.4,1.5,3.4,2.4c2.4,2.1,3.3,4.9,3.4,8h32.2
	c0-0.7,0.1-1.4,0-2c-0.2-1.7,0.4-2.9,1.8-4c1.3-1,2.5-2.2,3.8-3.2c3.2-2.4,4.4-5.6,4.4-9.4c-0.1-8.8,0-17.6,0-26.4
	c0-2.6,0-5.2,0-7.7c-0.1-3.2-2.1-5.9-5-6.5v19.1h-4.9v-1.7c0-10,0-20,0-29.9c0-2.7-1.7-4.7-3.9-4.6c-2.2,0.1-3.6,1.8-3.6,4.5
	c0,10.1,0,20.1,0,30.2v1.6H79.5z M40.2,19.9c-7.1,6.8-14.1,13.3-21.1,20c1.9,1.8,3.9,3.8,6.1,5.7c1.2,1,1.5,2.1,1,3.6
	c-0.6,1.8-1,3.7-1.5,5.5c-1.1,3.9,0,7.1,2.9,10c5.4,5.2,10.7,10.5,16.1,15.7c0.4,0.3,0.5,0.9,0.7,1.4c0.2-0.2,0.4-0.3,0.6-0.5
	c1.3-4.8,4.6-7.9,9.7-9.1c0-0.6,0-1.2,0-1.7c0-7.8-0.1-15.6,0.1-23.4c0.1-4.7,4.5-8.3,9.4-7.9c1.1,0.1,2.2,0.5,3.3,0.7
	c0.8-1.1,1.5-2.2,2.2-3.2c-4.7-4.6-9.4-9.4-14.3-13.9c-2.5-2.2-5.9-2-8.6-0.1c-1.6,1.1-2.7,1.1-4.1-0.2
	C41.7,21.6,40.9,20.7,40.2,19.9 M131.1,38.2c-7-6.8-14.1-13.7-21.3-20.8c-1.5,1.5-2.9,2.8-4.3,4.2c-0.8,0.8-1.8,1.1-3,0.8
	c-2.2-0.6-4.4-1.1-6.6-1.6C91.8,20,88.3,21,85.6,24c-2.7,3-5.4,6-8.1,9c-0.3,0.4-0.7,0.8-1,1.2c5.2,1.5,6.3,2.5,8.1,7.6
	c1.7-0.1,3.4-0.5,4.9-0.3c4.6,0.7,7.4,4.1,7.5,8.7c0,2.6,0,5.2,0,7.9c3.5,0.8,6.1,2.6,8,5.4c1.9,2.9,2,6.1,1.9,9.8
	c1.6-0.9,3.1-1.5,4-2.4c4.6-4.6,9.2-9.4,13.7-14.1c1.4-1.5,1.9-3.3,1.3-5.3c-0.6-2.3-0.3-4.6,0.9-6.7
	C128.1,42.6,129.6,40.5,131.1,38.2 M12.3,38.7c9.5-9.1,19.1-18.1,28.5-27c-1.9-1.8-4-3.8-5.9-5.6c-9.5,9-19,18-28.5,27
	C8.3,35,10.4,36.9,12.3,38.7 M110.9,11.7c8.6,8.4,17,16.6,25.5,24.8c2.2-2.1,4.2-4.1,6.3-6.1c-8.5-8.1-17.2-16.3-26-24.6
	C114.9,7.7,113,9.7,110.9,11.7 M96.8,127.3h-42v6.9h42V127.3z"/>
</svg>
