<?xml version="1.0" encoding="utf-8"?>
<!-- Generator: Adobe Illustrator 23.1.0, SVG Export Plug-In . SVG Version: 6.00 Build 0)  -->
<svg version="1.1" id="Capa_1" xmlns="http://www.w3.org/2000/svg" xmlns:xlink="http://www.w3.org/1999/xlink" x="0px" y="0px"
	 viewBox="0 0 287 337" style="enable-background:new 0 0 287 337;" xml:space="preserve">
<style type="text/css">
	.st0{fill:#F95500;}
</style>
<path class="st0" d="M143.6,0.6C222.8,0.6,287,64.8,287,144c0,63.4-41.9,119.4-102.5,137.4l-40.9,56l-40.8-56
	C42.1,263.3,0.2,207.3,0.2,144C0.2,64.8,64.4,0.6,143.6,0.6 M143.6,36.7c-59.2,0-107.2,48-107.2,107.3c0,54.7,36.3,93.1,87.8,105.7
	l19.5,26.7l19.5-26.7c51.4-12.6,87.8-51,87.8-105.7C250.9,84.7,202.9,36.7,143.6,36.7"/>
<path class="st0" d="M223.9,204.1c-1.1,1.7-2.6,2.1-4.5,2.1c-20.1,0-40.2,0-60.3,0c-0.4,0-0.8,0-1.3,0c-1.9-0.1-3.3-1.4-3.3-3.1
	c0-1.7,1.3-3.1,3.2-3.1c3.3-0.1,6.7,0,10,0c1.3,0,2.7,0,4.3,0c-0.5-6.1,1-12.1-1.3-17.8c-3-7.6-8.7-12-16.8-12.5c-7-0.4-14-0.3-21,0
	c-10,0.4-17.9,8.8-18,18.8c0,3.8,0,7.5,0,11.5c0.6,0,1.2,0,1.8,0c4.1,0,8.3,0,12.4,0c2.5,0,4.1,2.2,3.1,4.2
	c-0.4,0.8-1.4,1.4-2.3,1.9c-0.5,0.3-1.2,0.1-1.9,0.1c-20.1,0-40.3,0-60.4,0c-0.6,0-1.2,0-1.7-0.1c-1.6-0.2-2.8-1.5-2.7-3.1
	c0-1.6,1.2-2.9,2.8-3c2.1-0.1,4.3,0,6.6,0c0-1.7-0.1-3.2,0-4.7c0.2-3,0.1-6,0.8-8.9c1.5-6.4,5.6-10.9,11.5-13.7
	c0.4-0.2,0.9-0.4,1.3-0.6c0,0,0-0.1,0.1-0.1c-11.5-10.7-8.4-25.1-1.8-32.2c7.1-7.5,20.8-10.6,31.8-0.8c1-7.4,4.3-13.4,10-18.1
	c5.7-4.7,12.4-6.6,19.7-6c9.6,0.7,22.2,8.1,24.7,24.1c5.8-5.1,12.4-7.3,20-5.7c5.4,1.1,9.8,3.9,13.1,8.3c6.4,8.4,6.6,21.5-3.3,30.4
	c0.3,0.2,0.5,0.3,0.8,0.5c8.4,3.8,12.7,10.4,12.9,19.6c0.1,2.5,0,5.1,0,7.8c1.9,0,3.7,0.1,5.5,0c1.9-0.1,3.2,0.6,4,2.3V204.1z
	 M143.6,121.2c-11.6,0-21,9.4-21,21.1c0,11.5,9.4,20.9,21,21c11.6,0.1,21.1-9.4,21.1-21C164.6,130.6,155.2,121.1,143.6,121.2
	 M116.8,155.1c0-8.7-7.1-15.9-15.9-15.9c-8.8,0-16,7.2-15.9,16c0.1,8.7,7.2,15.8,16,15.8C109.7,170.9,116.8,163.8,116.8,155.1
	 M186.3,170.9c8.8,0,15.9-7,16-15.8c0.1-8.7-7.1-15.9-15.8-16c-8.8-0.1-16,7.1-16,15.9C170.4,163.8,177.5,170.9,186.3,170.9
	 M178.5,199.8h29.7c0-2.7,0-5.2,0-7.7c-0.1-8.6-6.3-14.7-14.9-14.8c-4.7,0-9.4,0-14.1,0c-1,0-2,0.2-3.3,0.3
	C179.5,184.8,178.1,192.3,178.5,199.8 M111.3,177.6c-0.9-0.1-1.6-0.3-2.2-0.3c-5.7,0-11.4-0.2-17.1,0.1c-6.3,0.4-11.5,5-12.6,11.2
	c-0.6,3.6-0.4,7.4-0.6,11.2h29.8C109.1,192.3,107.6,184.8,111.3,177.6 M119.4,167.8c2.5-1.2,5.1-2.5,7.7-3.8c-1.4-1.3-2.9-2.7-4.2-4
	C121.6,162.6,120.5,165.3,119.4,167.8 M160.2,164c2.6,1.3,5.3,2.6,7.7,3.8c-1.1-2.5-2.3-5.1-3.4-7.8
	C163,161.3,161.5,162.7,160.2,164"/>
<path class="st0" d="M154.8,101.7c-0.8-0.3-1.7-0.5-2.5-0.8c-2.5-1-5-2.2-7.5-3.1c-0.7-0.3-1.6-0.3-2.3,0c-2.5,1-5,2.1-7.5,3.1
	c-4.6,1.9-8.3-0.8-8-5.7c0.2-2.7,0.5-5.4,0.6-8.1c0-0.8-0.3-1.8-0.8-2.5c-1.6-2.1-3.4-4-5.1-5.9c-3.3-3.9-1.9-8.4,3.1-9.5
	c2.6-0.6,5.3-1.2,7.9-1.9c0.7-0.2,1.4-0.7,1.8-1.3c1.5-2.3,2.9-4.7,4.3-7.1c2.6-4.2,7.3-4.1,9.8,0.1c1.4,2.3,2.7,4.7,4.2,7
	c0.4,0.6,1.2,1.2,1.9,1.4c2.7,0.7,5.4,1.3,8.1,1.9c4.7,1.1,6.1,5.6,3,9.3c-1.7,2-3.5,4.1-5.3,6c-0.7,0.8-1,1.6-0.9,2.7
	c0.3,2.9,0.6,5.7,0.7,8.6C160.5,99.1,158.1,101.6,154.8,101.7 M143.6,62.9c-1.5,2.5-3,4.7-4.2,7c-1,1.9-2.4,3-4.6,3.3
	c-2.6,0.5-5.2,1.2-8,1.8c2.1,2.5,4.1,4.8,6.1,7c0.9,1.1,1.3,2.2,1.1,3.6c-0.3,2.9-0.5,5.9-0.8,9.1c2.9-1.2,5.5-2.2,8.1-3.4
	c1.5-0.7,3-0.7,4.5,0c2.6,1.2,5.3,2.2,8.1,3.4c-0.3-3.1-0.4-6-0.8-8.9c-0.2-1.5,0.2-2.7,1.2-3.9c2-2.2,3.9-4.5,6-6.9
	c-2.9-0.7-5.5-1.4-8.1-1.9c-2-0.4-3.4-1.3-4.3-3.1C146.6,67.7,145.1,65.5,143.6,62.9"/>
<path class="st0" d="M85.2,110.9c0.1-1.3,0.4-3.4,0.4-5.4c0-0.7-0.2-1.5-0.7-2.1c-1.3-1.7-2.8-3.2-4.2-4.9c-2.7-3.2-1.3-7.4,2.8-8.3
	c2.1-0.5,4.2-0.9,6.2-1.5c0.6-0.2,1.3-0.7,1.6-1.2c1.2-1.8,2.2-3.7,3.3-5.5c2.2-3.6,6.6-3.6,8.8,0c1.1,1.8,2.2,3.7,3.3,5.5
	c0.4,0.5,1,1,1.6,1.2c2.1,0.6,4.3,1,6.4,1.5c4,1,5.3,5.1,2.7,8.3c-1.3,1.6-2.8,3.1-4.1,4.8c-0.5,0.6-0.8,1.6-0.8,2.4
	c0,2,0.3,4,0.5,5.9c0.4,4.3-3.2,7.1-7.2,5.4c-2-0.8-3.9-1.7-5.9-2.5c-0.6-0.2-1.4-0.2-2,0c-1.9,0.7-3.8,1.6-5.6,2.3
	C88.3,118.7,84.9,116.3,85.2,110.9 M106.9,110.5c-0.2-2.3-0.5-4.3-0.5-6.3c0-1.2,0.4-2.5,1.1-3.4c1.2-1.7,2.7-3.2,4.2-4.9
	c-2-0.5-3.8-1-5.7-1.3c-1.7-0.3-2.9-1.1-3.8-2.7c-0.9-1.7-1.9-3.3-3-5.1c-1.1,1.9-2.2,3.4-3,5.1c-0.8,1.5-2,2.3-3.6,2.6
	c-1.9,0.4-3.7,0.8-5.8,1.3c1.3,1.5,2.3,2.8,3.5,4c1.7,1.6,2.1,3.5,1.7,5.7c-0.3,1.6-0.3,3.1-0.4,5c2.1-0.9,3.9-1.6,5.6-2.4
	c1.4-0.7,2.8-0.7,4.2,0C103.1,109,104.9,109.7,106.9,110.5"/>
<path class="st0" d="M196.5,117.5c-0.7-0.3-2.1-0.6-3.3-1.3c-3.5-2.2-7-2.2-10.5,0c-0.6,0.4-1.3,0.6-2,0.9c-3.7,1.3-7.2-1.3-6.9-5.1
	c0.2-2.2,0.5-4.4,0.5-6.6c0-0.7-0.3-1.5-0.7-2.1c-1.3-1.6-2.7-3.2-4.1-4.8c-2.8-3.3-1.4-7.4,2.9-8.4c2.4-0.6,5.2-0.6,7-1.9
	c1.8-1.3,2.7-4,4-6.1c2.4-3.9,6.7-3.8,9.1,0c0.7,1.2,1.6,2.3,2.1,3.5c0.9,2.3,2.7,3.3,5,3.5c1.4,0.2,2.9,0.6,4.3,1
	c3.8,1,5.1,5.1,2.7,8.2c-1.4,1.7-2.9,3.3-4.3,5c-0.4,0.6-0.7,1.5-0.7,2.2c0.1,2.3,0.4,4.6,0.5,6.9
	C202.1,115.4,199.9,117.5,196.5,117.5 M180.3,110.5c1.9-0.8,3.7-1.5,5.4-2.3c1.6-0.8,3-0.8,4.6,0c1.7,0.8,3.4,1.5,5.4,2.3
	c-0.2-2.3-0.5-4.4-0.5-6.5c0-1.1,0.5-2.3,1.1-3.2c1.2-1.7,2.7-3.2,4.2-4.9c-2.1-0.5-4.1-1-6-1.4c-1.5-0.3-2.5-1.1-3.3-2.4
	c-1-1.7-2-3.4-3.2-5.3c-1.1,1.8-2.2,3.4-3.1,5.1c-0.8,1.5-2,2.3-3.7,2.6c-1.9,0.4-3.7,0.8-5.7,1.3c1.5,1.8,3,3.3,4.2,5
	c0.6,0.9,1,2.2,1,3.3C180.8,106.2,180.5,108.2,180.3,110.5"/>
<path class="st0" d="M146.7,203c0,1.7-1.4,3.1-3.1,3.1c-1.7,0-3.1-1.3-3.2-3c-0.1-1.8,1.3-3.2,3.1-3.2
	C145.3,200,146.7,201.3,146.7,203"/>
</svg>
