<?xml version="1.0" encoding="utf-8"?>
<!-- Generator: Adobe Illustrator 23.1.0, SVG Export Plug-In . SVG Version: 6.00 Build 0)  -->
<svg version="1.1" id="Capa_1" xmlns="http://www.w3.org/2000/svg" xmlns:xlink="http://www.w3.org/1999/xlink" x="0px" y="0px"
	 viewBox="0 0 287 337" style="enable-background:new 0 0 287 337;" xml:space="preserve">
<style type="text/css">
	.st0{fill:#2C2C2C;}
</style>
<path class="st0" d="M143.6,0.6C222.8,0.6,287,64.8,287,144c0,63.4-41.9,119.4-102.5,137.4l-40.9,56l-40.8-56
	C42.1,263.3,0.2,207.3,0.2,144C0.2,64.8,64.4,0.6,143.6,0.6 M143.6,36.7c-59.2,0-107.2,48-107.2,107.3c0,54.7,36.3,93.1,87.8,105.7
	l19.5,26.7l19.5-26.7c51.4-12.6,87.8-51,87.8-105.7C250.9,84.7,202.9,36.7,143.6,36.7"/>
<path class="st0" d="M71.4,139.9c0.4-2.6,0.7-5.2,1.1-7.8c3.4-18,12.5-32.4,27.2-43.2c13.3-9.7,28.4-13.9,44.8-12.8
	c4.5,0.3,9,1.4,13.5,2.3c2.4,0.5,3.6,2.4,3.2,4.4c-0.5,2-2.5,3.1-4.8,2.5c-6.2-1.6-12.6-2.5-19-2.2c-12.1,0.5-23.1,4.3-32.9,11.3
	c-9.3,6.6-16.2,15.1-20.7,25.5c-3.9,9-5.6,18.4-4.9,28.2c0.7,10.8,4.1,20.7,10,29.8c5.8,8.9,13.5,15.8,22.9,20.7
	c9.5,4.9,19.6,7.3,30.3,6.9c17.1-0.8,31.6-7.5,43.1-20.2c11.5-12.7,16.7-27.8,15.7-44.9c-0.2-4.2-1.3-8.4-2.1-12.6
	c-0.3-1.6-0.1-3,1.2-4.1c1.1-0.9,2.4-1.2,3.6-0.5c0.9,0.6,1.9,1.6,2.2,2.6c6.4,25.7,0.6,48.3-18,67.2c-10.4,10.6-23.3,17-38.1,18.9
	c-25.2,3.2-46.3-5.1-62.7-24.4c-8.8-10.4-13.6-22.6-15.2-36.1c-0.1-1-0.2-2-0.4-2.9V139.9z"/>
<path class="st0" d="M198.7,59.8c0.9,0.4,1.9,0.8,2.8,1.4c2.3,1.5,3.1,3.8,3.1,6.4c0,3.9,0,7.9,0,12h1.7c3.4,0,6.8,0,10.2,0
	c3.4,0,6,1.3,7.4,4.5c1.3,3.2,0.3,6-2.1,8.4c-6.6,6.6-13.2,13.1-19.7,19.7c-2.6,2.7-5.7,3.9-9.5,3.9c-5.9-0.1-11.7,0-17.6,0
	c-1.3,0-2.1,0.4-3,1.3c-9,9.1-18.1,18.1-27.1,27.1c-2.2,2.2-4.3,2.5-6,0.9c-1.7-1.6-1.4-3.8,0.8-6c9.1-9.1,18.2-18.2,27.4-27.3
	c0.8-0.8,1.1-1.5,1.1-2.6c0-6.5,0-13,0.1-19.6c0-2.9,1.3-5.3,3.3-7.3c6.8-6.9,13.7-13.8,20.6-20.6c1.1-1,2.6-1.6,3.9-2.4H198.7z
	 M197.3,67.2c-0.4,0.3-0.6,0.4-0.7,0.5c-6.7,6.6-13.3,13.3-19.9,20c-0.8,0.8-1.3,2.3-1.4,3.4c-0.2,2.8-0.1,5.7-0.1,8.5
	c0,1.2,0,2.4,0,3.9c0.5-0.4,0.7-0.5,0.8-0.7c6.9-6.9,13.7-13.7,20.6-20.6c0.4-0.4,0.6-1.2,0.6-1.8c0.1-3.6,0-7.3,0-10.9V67.2z
	 M180.5,108.8c0.8,0.1,1.2,0.1,1.6,0.1c3.5,0,7,0,10.4,0c1.8,0,3.1-0.6,4.4-1.8c6.3-6.3,12.6-12.6,18.9-18.9c0.3-0.3,0.6-0.7,1-1.1
	c-0.3-0.1-0.4-0.2-0.5-0.2c-4.4,0-8.8,0-13.1,0c-0.5,0-1.1,0.4-1.5,0.8c-2.1,2-4.2,4.1-6.2,6.2C190.5,98.8,185.7,103.7,180.5,108.8"
	/>
<path class="st0" d="M186.7,143.2c-0.2,21.7-13.3,39.8-32.9,45.7c-16.7,5-31.9,1.7-45.1-9.8c-9-7.9-14.2-18-15.4-29.9
	c-1.5-15,3.3-28.1,14.2-38.6c10.3-9.9,22.9-14.2,37.1-12.7c4.1,0.4,8,1.7,12,2.8c2.3,0.6,3.2,2.7,2.5,4.7c-0.7,1.9-2.6,2.8-4.8,2
	c-4-1.4-8-2.3-12.2-2.6c-15.2-1.1-31,7.9-37.6,21.7c-7.2,15.1-5.6,29.5,4.6,42.7c6.2,8,14.7,12.7,24.7,14.2
	c21,3.3,41.1-11,44.9-31.8c1.3-6.9,0.8-13.7-1.5-20.3c-0.2-0.6-0.4-1.2-0.6-1.8c-0.5-2,0.5-3.9,2.3-4.4c1.9-0.6,3.8,0.2,4.4,2.2
	c1,3.2,1.9,6.4,2.6,9.6C186.6,139.3,186.6,141.9,186.7,143.2"/>
<path class="st0" d="M114.6,144.4c0-14.7,12.6-26.3,27.1-25.2c1.6,0.1,2.9,0.8,3.5,2.4c0.5,1.4,0.3,3-0.9,3.8c-1,0.7-2.5,1-3.7,1
	c-6.8,0-12.1,2.8-15.8,8.5c-4.2,6.5-3.6,14.9,1.3,20.9c4.9,6,12.9,8.2,20.2,5.5c7.2-2.6,11.8-9.6,11.7-17.2c0-0.6,0-1.3,0.1-1.9
	c0.3-1.9,1.7-3.1,3.4-3.1c1.9,0,3.4,1.3,3.6,3.3c0.4,3.5,0,6.9-1.2,10.1c-3.9,11.2-14.3,18-26.1,17.1c-11.2-0.8-21.1-10-22.6-21.2
	C114.8,146.9,114.8,145.6,114.6,144.4"/>
</svg>
