<?xml version="1.0" encoding="utf-8"?>
<!-- Generator: Adobe Illustrator 23.1.0, SVG Export Plug-In . SVG Version: 6.00 Build 0)  -->
<svg version="1.1" id="Capa_1" xmlns="http://www.w3.org/2000/svg" xmlns:xlink="http://www.w3.org/1999/xlink" x="0px" y="0px"
	 viewBox="0 0 161 203" style="enable-background:new 0 0 161 203;" xml:space="preserve">
<style type="text/css">
	.st0{fill:#FFFFFF;}
</style>
<path class="st0" d="M38.4,171.2c-9.7,0-19.4,0-29.1,0c-6,0-9-3-9-8.9c0.1-8.5-0.3-17.1,0.5-25.6c1.2-11.9,11.9-21.2,23.9-21.4
	c9.2-0.2,18.4-0.2,27.7,0c12.9,0.3,23.8,11.2,24.1,24.1c0.2,8,0.1,15.9,0,23.9c0,4.9-3.2,7.9-8.1,7.9
	C58.4,171.3,48.4,171.2,38.4,171.2 M56.4,164.6c0.1-0.8,0.2-1.3,0.2-1.8c0-7.1,0-14.3,0-21.4c0-2.4,1.1-4.2,3.6-4.2
	c2.5,0,3.6,1.8,3.6,4.2c0,3.1,0,6.3,0,9.4c0,4.6,0,9.2,0,13.7h7c0-8.3,0.1-16.4,0-24.4c-0.2-10.4-8.1-18.2-18.5-18.4
	c-9.2-0.2-18.5-0.1-27.7,0c-9.5,0.1-17.3,6.4-18.3,15.8c-0.9,8.9-0.2,18-0.2,27.1H13c0-1.3,0-2.4,0-3.5c0-6.5,0-13,0-19.5
	c0-2.4,0.9-4.3,3.5-4.3c2.7-0.1,3.8,1.8,3.8,4.4c0,2.4,0,4.8,0,7.2c0,5.2,0,10.4,0,15.8H56.4z"/>
<path class="st0" d="M61.4,0.5c8.4,0.2,16.7,2.5,23.7,8.3C98,19.5,97.8,37.4,84.7,47.8c-4.7,3.7-10.1,6-16.1,7
	c-3.1,0.5-5.3,1.8-6.6,4.8c-1.9,4.3-5.5,7-9.9,8.5c-3.1,1.1-5.4-0.6-4.8-3.8c1.3-6.7-1.4-10.9-7.1-14.3C22,39.3,22.3,16.6,40.6,5.9
	C46.8,2.2,53.6,0.6,61.4,0.5 M54,60.6c0.8-1.1,1.3-1.5,1.5-2.1c2.3-5.8,6.8-8.2,12.7-9.4c4.5-1,9.2-2.9,12.9-5.6
	c11.7-8.4,11.4-23.2-0.2-31.7c-11.1-8.1-28.4-8.4-39.7-0.6C28,20.3,28.1,36.1,41.8,44.5C48,48.3,52.7,52.7,54,60.6"/>
<path class="st0" d="M57.8,90.1c0,10.7-8.8,19.4-19.5,19.4c-10.6,0-19.2-8.7-19.3-19.3c-0.1-10.6,8.7-19.5,19.4-19.5
	C49.1,70.6,57.9,79.4,57.8,90.1 M51.5,90c0-7.2-5.9-13.1-13.1-13c-7.1,0-13.1,6-13.1,13.1c-0.1,7.3,6,13.2,13.3,13.1
	C45.9,103.1,51.6,97.2,51.5,90"/>
<path class="st0" d="M122.4,202c-9.7,0-19.4,0-29.1,0c-6,0-9-3-9-8.9c0.1-8.5-0.3-17.1,0.5-25.6c1.2-11.9,11.9-21.2,23.9-21.4
	c9.2-0.2,18.4-0.2,27.7,0c12.9,0.3,23.8,11.2,24.1,24.1c0.2,8,0.1,15.9,0,23.9c0,4.9-3.2,7.9-8.1,7.9C142.4,202,132.4,202,122.4,202
	 M140.4,195.3c0.1-0.8,0.2-1.3,0.2-1.8c0-7.1,0-14.3,0-21.4c0-2.4,1.1-4.2,3.6-4.2c2.5,0,3.6,1.8,3.6,4.2c0,3.1,0,6.3,0,9.4
	c0,4.6,0,9.2,0,13.7h7c0-8.3,0.1-16.4,0-24.4c-0.2-10.4-8.1-18.2-18.5-18.4c-9.2-0.2-18.5-0.1-27.7,0c-9.5,0.1-17.3,6.4-18.3,15.8
	c-0.9,8.9-0.2,18-0.2,27.1H97c0-1.3,0-2.4,0-3.5c0-6.5,0-13,0-19.5c0-2.4,0.9-4.3,3.5-4.3c2.7-0.1,3.8,1.8,3.8,4.4
	c0,2.4,0,4.8,0,7.2c0,5.2,0,10.4,0,15.8H140.4z"/>
<path class="st0" d="M141.8,120.8c0,10.7-8.8,19.4-19.5,19.4c-10.6,0-19.2-8.7-19.3-19.3c-0.1-10.6,8.7-19.5,19.4-19.5
	C133.1,101.3,141.8,110.1,141.8,120.8 M135.5,120.7c0-7.2-5.9-13.1-13.1-13c-7.1,0-13.1,6-13.1,13.1c-0.1,7.3,6,13.2,13.3,13.1
	C129.8,133.8,135.5,127.9,135.5,120.7"/>
<path class="st0" d="M77,22.1c2.5,0,4.7,2.1,4.6,4.6c0,2.4-2.1,4.4-4.5,4.4c-2.5,0-4.7-2.1-4.6-4.6C72.6,24.1,74.6,22.1,77,22.1"/>
<path class="st0" d="M65.4,26.6c0,2.4-1.9,4.5-4.3,4.6c-2.5,0.1-4.7-1.9-4.7-4.5c0-2.4,1.9-4.4,4.4-4.5C63.3,22,65.4,24,65.4,26.6"
	/>
<path class="st0" d="M44.7,22.1c2.6,0,4.5,2,4.5,4.6c-0.1,2.5-2,4.4-4.5,4.4c-2.6,0-4.6-2-4.5-4.7C40.3,24,42.2,22.1,44.7,22.1"/>
<path class="st0" d="M126.2,60.4c12.2-17.2,2.7-37.8-18.4-40l0,0c-0.1,0-0.2,0-0.3,0c-1.3,0-2.4,1.1-2.4,2.4c0,1.1,0.7,2,1.7,2.3
	l0,0.1c0.9,0.1,1.7,0.2,2.5,0.3c15.8,2.9,22.2,17.3,13.1,30.6c-4.1,5.9-6.6,11.9-4.5,19.6c-1.2-0.7-1.8-0.9-2.3-1.3
	c-4.5-4.4-9.5-4.7-15.5-3.4c-4.5,1-9.6,1.1-14.1,0.2c-2.1-0.4-4.1-1.1-5.8-2l0,0c-0.4-0.2-0.8-0.3-1.3-0.3c-1.4,0-2.6,1.2-2.6,2.6
	c0,1,0.6,1.9,1.5,2.3l0,0c2.1,1.2,4.4,2.1,6.9,2.7c5.9,1.5,11.7,1.4,17.5-0.2c3.1-0.8,5.5-0.5,8,1.7c3.5,3.1,7.8,4.1,12.5,3.7
	c3.3-0.3,4.7-2.8,2.8-5.5C121.6,70.8,122.3,65.9,126.2,60.4"/>
</svg>
