<?xml version="1.0" encoding="utf-8"?>
<!-- Generator: Adobe Illustrator 23.1.0, SVG Export Plug-In . SVG Version: 6.00 Build 0)  -->
<svg version="1.1" id="Capa_1" xmlns="http://www.w3.org/2000/svg" xmlns:xlink="http://www.w3.org/1999/xlink" x="0px" y="0px"
	 viewBox="0 0 287 337" style="enable-background:new 0 0 287 337;" xml:space="preserve">
<style type="text/css">
	.st0{fill:#F95500;}
</style>
<path class="st0" d="M143.6,0.6C222.8,0.6,287,64.8,287,144c0,63.4-41.9,119.4-102.5,137.4l-40.9,56l-40.8-56
	C42.1,263.3,0.2,207.3,0.2,144C0.2,64.8,64.4,0.6,143.6,0.6 M143.6,36.7c-59.2,0-107.2,48-107.2,107.3c0,54.7,36.3,93.1,87.8,105.7
	l19.5,26.7l19.5-26.7c51.4-12.6,87.8-51,87.8-105.7C250.9,84.7,202.9,36.7,143.6,36.7"/>
<path class="st0" d="M117.9,113.6c0.9,0.6,1.9,1,2.6,1.6c7.3,6.7,14.5,13.4,21.8,20c1.8,1.7,3.3,1.4,4.8-0.4
	c3.9-4.9,7.9-9.7,11.9-14.5c5.4-6.6,10.8-13.3,16.3-19.9c4.5-5.5,8.9-10.9,13.4-16.4c0.6-0.7,1.2-1.5,1.8-2.2
	c1.3-1.6,3.1-1.7,4.6-0.4c4.7,3.9,9.5,7.8,14.3,11.6c1.9,1.5,2.1,3.2,0.6,5.1c-11,13.5-22.1,26.9-33.1,40.4
	c-9.1,11.1-18.1,22.2-27.2,33.2c-1.5,1.9-3,1.9-4.8,0.3c-6-5.5-11.9-11-17.9-16.4c-6.2-5.7-12.3-11.4-18.5-17.1
	c-1.8-1.6-3.6-3.3-5.3-4.9c-1.7-1.6-1.8-3.1-0.2-4.8c3.8-4.2,7.7-8.4,11.6-12.5c0.4-0.5,0.8-1,1.3-1.4
	C116.2,114.4,117,114.1,117.9,113.6"/>
<path class="st0" d="M70.6,148.4c2,0,4,0,6,0c0.3,0,0.7,0.5,0.8,0.8c0.5,5.6,1.9,11,3.9,16.3c3.6,9.4,8.9,17.6,16.1,24.6
	c9.6,9.4,20.9,15.4,34.1,18.1c2.1,0.4,4.3,0.8,6.6,1.2v6.3C108.9,214.2,74.7,189.6,70.6,148.4"/>
<path class="st0" d="M152,215.7v-6.1c4.3-1,8.5-1.7,12.6-2.9c9.3-2.7,17.5-7.3,24.8-13.6c7-6.1,12.6-13.2,16.7-21.5
	c3-6.1,5-12.6,6.2-19.3c0.1-0.7,0.2-1.4,0.3-2.1c0.2-1.7,0.2-1.7,1.9-1.7h4.8C217,182,188.2,213.2,152,215.7"/>
<path class="st0" d="M138,67.3v6.5c-15.9,1.8-29.7,8.3-41.1,19.6c-11.4,11.4-17.9,25.2-19.7,41.2c-0.3,0-0.6,0.1-0.9,0.1
	c-1.9,0-3.8,0-5.6,0C73.8,97.4,104.9,69.6,138,67.3"/>
<path class="st0" d="M138,196.1c-22.6-2-45-21.7-47.6-47.6h6.2c0.9,3.3,1.7,6.6,2.8,9.8c2.3,6.5,6,12.1,10.7,17.1
	c7.2,7.4,15.9,11.9,25.9,14c0.4,0.1,0.8,0,1.1,0.1c0.3,0.2,0.6,0.5,0.8,0.9c0.1,0.4,0.1,0.8,0.1,1.2C138,193.1,138,194.6,138,196.1"
	/>
<path class="st0" d="M151.9,196.1c0-2,0-4,0-5.9c0-0.3,0.6-0.8,0.9-0.8c9.6-1.6,17.9-5.7,25-12.3c7-6.5,11.7-14.4,14.1-23.7
	c0.4-1.6,0.7-3.2,1.1-4.9h6.4C197.1,173.4,175.6,193.8,151.9,196.1"/>
<path class="st0" d="M90.3,134.5c3.3-26.6,24.9-45.1,47.7-47.6c0,2.1,0,4.1,0,6.1c0,0.2-0.4,0.5-0.7,0.6c-8.4,1.3-15.9,4.7-22.5,10
	c-8.6,6.8-14.2,15.6-16.9,26.2c-0.4,1.6-0.7,3.1-1,4.8H90.3z"/>
<path class="st0" d="M85.3,138.1c6.3,0,12.5,0,18.8,0c1.7,0,2.3,0.5,2.3,2.2c0,0.8,0,1.5,0,2.3c-0.1,1.9-0.7,2.5-2.6,2.6
	c-2.5,0-4.9,0-7.4,0H66.9c-2.2,0-2.9-0.7-2.9-2.9c0-0.7,0-1.3,0-2c0.1-1.5,0.8-2.1,2.3-2.1C72.6,138.1,79,138.1,85.3,138.1"/>
<path class="st0" d="M148.5,82c0,6.2,0,12.4,0,18.6c0,1.8-0.6,2.4-2.4,2.4c-0.8,0-1.6,0-2.4,0c-1.7,0-2.3-0.6-2.3-2.3
	c0-5.6,0-11.2,0-16.8c0-6.9,0-13.8,0-20.7c0-1.8,0.6-2.4,2.4-2.4c0.8,0,1.6,0,2.4,0c1.6,0,2.3,0.7,2.3,2.3
	C148.5,69.3,148.5,75.6,148.5,82"/>
<path class="st0" d="M141.4,201.2c0-6.2,0-12.5,0-18.7c0-1.7,0.6-2.4,2.3-2.4c0.9,0,1.8,0,2.6,0c1.4,0.1,2.1,0.7,2.1,2.1
	c0,12.7,0,25.4,0,38.2c0,1.2-0.7,1.9-1.9,1.9c-0.8,0-1.7,0-2.5,0c-2.1,0-2.6-0.5-2.6-2.6c0-5.8,0-11.6,0-17.4
	C141.4,201.9,141.4,201.6,141.4,201.2"/>
<path class="st0" d="M204.6,145.1c-6.1,0-12.2,0-18.3,0c-0.5,0-1.1,0-1.6-0.2c-1.2-0.5-1.4-1.3-0.6-2.3c1.1-1.3,2.1-2.6,3.2-3.8
	c0.4-0.4,1.1-0.6,1.6-0.6c8.8,0,17.7,0,26.5,0c2.7,0,5.4,0,8.2,0c1.5,0,2.1,0.6,2.3,2.1c0,0.1,0,0.3,0,0.4c0.1,4.1-0.2,4.7-4.4,4.6
	C215.8,145.1,210.2,145.1,204.6,145.1L204.6,145.1z"/>
<path class="st0" d="M152,67.2c11.2,1.1,21.5,4.5,31.2,10.2c-1.4,1.7-2.8,3.4-4.2,5.2c-8.4-4.8-17.4-7.7-27-8.8V67.2z"/>
<path class="st0" d="M212,108.6c4.1,8.2,6.4,16.8,7.4,25.9h-6.5c-0.5-2.8-0.8-5.6-1.5-8.3c-1-3.6-2.2-7.1-3.4-10.6
	c-0.3-1-0.4-1.6,0.4-2.5C209.5,111.7,210.7,110.2,212,108.6"/>
<path class="st0" d="M166.6,97.7c-4-1.2-7.8-2.4-11.7-3.6c-0.6-0.2-1.3-0.4-1.9-0.4c-1.1,0.1-1.2-0.5-1.2-1.4c0.1-1.8,0-3.6,0-5.5
	c6.6,0.9,12.8,2.8,18.7,5.9C169.2,94.5,167.9,96.2,166.6,97.7"/>
<path class="st0" d="M197.9,125.7c0.7,3.2,1.2,6,1.8,8.8h-6.6c-0.7-1.4-0.5-2.5,0.6-3.8C195.2,129.3,196.4,127.6,197.9,125.7"/>
</svg>
