<?xml version="1.0" encoding="utf-8"?>
<!-- Generator: Adobe Illustrator 23.1.0, SVG Export Plug-In . SVG Version: 6.00 Build 0)  -->
<svg version="1.1" id="Capa_1" xmlns="http://www.w3.org/2000/svg" xmlns:xlink="http://www.w3.org/1999/xlink" x="0px" y="0px"
	 viewBox="0 0 149.2 139" style="enable-background:new 0 0 149.2 139;" xml:space="preserve">
<style type="text/css">
	.st0{fill:#FFFFFF;}
</style>
<path class="st0" d="M50.9,117.1c0.1-0.6,0.2-0.9,0.2-1.3c0-5.1,0-10.2,0-15.3c0-1.7,1.1-3,3.6-3c2.5,0,3.6,1.3,3.6,3
	c0,2.2,0,4.5,0,6.7c0,3.3,0,6.5,0,9.8h7c0-5.9,0.1-11.7,0-17.4c-0.2-7.4-8.1-13-18.5-13.1c-9.2-0.1-18.5-0.1-27.7,0
	C9.7,86.6,1.8,91,0.9,97.8c-0.9,6.4-0.2,12.8-0.2,19.3h6.8c0-0.9,0-1.7,0-2.5c0-4.6,0-9.3,0-13.9c0-1.7,0.9-3.1,3.5-3.1
	c2.7,0,3.8,1.3,3.8,3.1c0,1.7,0,3.4,0,5.2c0,3.7,0,7.4,0,11.3H50.9z"/>
<path class="st0" d="M55.9,0c8.4,0.1,16.7,1.8,23.7,5.9c12.9,7.6,12.7,20.3-0.4,27.8c-4.7,2.7-10.1,4.3-16.1,5
	c-3.1,0.4-5.3,1.3-6.6,3.4c-1.9,3-5.5,5-9.9,6.1c-3.1,0.8-5.4-0.4-4.8-2.7c1.3-4.8-1.4-7.8-7.1-10.2c-18.2-7.6-17.9-23.8,0.4-31.5
	C41.3,1.2,48.1,0,55.9,0 M48.5,42.8c0.8-0.8,1.3-1.1,1.5-1.5c2.3-4.2,6.8-5.8,12.7-6.7c4.5-0.7,9.2-2.1,12.9-4
	c11.7-6,11.4-16.5-0.2-22.6C64.4,2.2,47.1,2,35.8,7.6c-13.3,6.5-13.1,17.8,0.6,23.8C42.5,34.1,47.2,37.2,48.5,42.8"/>
<path class="st0" d="M52.3,63.9c0,7.7-8.8,13.9-19.5,13.8c-10.6,0-19.2-6.2-19.3-13.8c-0.1-7.6,8.7-13.9,19.4-14
	C43.6,50,52.4,56.3,52.3,63.9 M46,63.8c0-5.1-5.9-9.3-13.1-9.3c-7.1,0-13.1,4.3-13.1,9.3c-0.1,5.2,6,9.4,13.3,9.4
	C40.3,73.2,46.1,69,46,63.8"/>
<path class="st0" d="M134.9,139c0.1-0.6,0.2-0.9,0.2-1.3c0-5.1,0-10.2,0-15.3c0-1.7,1.1-3,3.6-3c2.5,0,3.6,1.3,3.6,3
	c0,2.2,0,4.5,0,6.7c0,3.3,0,6.5,0,9.8h7c0-5.9,0.1-11.7,0-17.4c-0.2-7.4-8.1-13-18.5-13.1c-9.2-0.1-18.5-0.1-27.7,0
	c-9.5,0.1-17.3,4.5-18.3,11.3c-0.9,6.4-0.2,12.8-0.2,19.3h6.8c0-0.9,0-1.7,0-2.5c0-4.6,0-9.3,0-13.9c0-1.7,0.9-3.1,3.5-3.1
	c2.7,0,3.8,1.3,3.8,3.1c0,1.7,0,3.4,0,5.2c0,3.7,0,7.4,0,11.3H134.9z"/>
<path class="st0" d="M136.3,85.9c0,7.7-8.8,13.9-19.5,13.8c-10.6,0-19.2-6.2-19.3-13.8c-0.1-7.6,8.7-13.9,19.4-14
	C127.6,71.9,136.3,78.2,136.3,85.9 M130,85.8c0-5.1-5.9-9.3-13.1-9.3c-7.1,0-13.1,4.3-13.1,9.3c-0.1,5.2,6,9.4,13.3,9.4
	C124.3,95.1,130,90.9,130,85.8"/>
<path class="st0" d="M71.5,15.4c2.5,0,4.7,1.5,4.6,3.3c0,1.7-2.1,3.1-4.5,3.2c-2.5,0-4.7-1.5-4.6-3.3C67,16.8,69.1,15.4,71.5,15.4"
	/>
<path class="st0" d="M59.9,18.6c0,1.7-1.9,3.2-4.3,3.2c-2.5,0.1-4.7-1.4-4.7-3.2c0-1.7,1.9-3.2,4.4-3.2
	C57.8,15.3,59.9,16.8,59.9,18.6"/>
<path class="st0" d="M39.2,15.4c2.6,0,4.5,1.5,4.5,3.3c-0.1,1.8-2,3.1-4.5,3.1c-2.6,0-4.6-1.5-4.5-3.3
	C34.8,16.8,36.7,15.4,39.2,15.4"/>
<path class="st0" d="M120.7,42.7c12.2-12.3,2.7-27-18.4-28.6l0,0c-0.1,0-0.2,0-0.3,0c-1.3,0-2.4,0.8-2.4,1.7c0,0.8,0.7,1.4,1.7,1.6
	l0,0c0.9,0.1,1.7,0.1,2.5,0.2c15.8,2.1,22.2,12.4,13.1,21.9c-4.1,4.2-6.6,8.5-4.5,14c-1.2-0.5-1.8-0.6-2.3-0.9
	c-4.5-3.1-9.5-3.3-15.5-2.4c-4.5,0.7-9.6,0.8-14.1,0.1c-2.1-0.3-4.1-0.8-5.8-1.4l0,0c-0.4-0.2-0.8-0.2-1.3-0.2
	c-1.4,0-2.6,0.8-2.6,1.9c0,0.7,0.6,1.4,1.5,1.7l0,0c2.1,0.8,4.4,1.5,6.9,1.9c5.9,1.1,11.7,1,17.5-0.1c3.1-0.6,5.5-0.4,8,1.2
	c3.5,2.2,7.8,3,12.5,2.7c3.3-0.2,4.7-2,2.8-3.9C116.1,50.2,116.8,46.6,120.7,42.7"/>
</svg>
