<?xml version="1.0" encoding="UTF-8"?>
<svg id="Capa_1" data-name="Capa 1" xmlns="http://www.w3.org/2000/svg" viewBox="0 0 425.41 102.12">
  <defs>
    <style>
      .cls-1 {
        fill: #fb5500;
      }

      .cls-1, .cls-2 {
        stroke-width: 0px;
      }

      .cls-2 {
        fill: #fff;
      }
    </style>
  </defs>
  <g>
    <rect class="cls-1" x="77.51" y="4.81" width="18.45" height="18.45"/>
    <g>
      <path class="cls-2" d="m70.16,67.95c-4.81,5.01-11.57,8.14-19.06,8.14-13.67,0-24.92-10.39-26.27-23.71-.09-.89-.14-1.79-.14-2.7,0-14.59,11.82-26.41,26.41-26.41h19.06V4.81h-17.66c-.47-.01-.93-.04-1.4-.04C26.3,4.78,6.2,24.88,6.2,49.68s20.1,44.9,44.9,44.9c6.82,0,13.27-1.53,19.06-4.24v-22.38Z"/>
      <path class="cls-2" d="m95.96,48.27v-1.37s0-7.27,0-7.27v-9.14h-18.45v19.19h0s0,0,0,.01v36.29c11.2-8.16,18.49-21.38,18.49-36.3,0-.47-.02-.94-.04-1.41Z"/>
    </g>
  </g>
  <g>
    <path class="cls-2" d="m145.76,83.18l-.62.79c-.7-.71-1.69-1.14-2.69-1.14-2.05,0-3.71,1.59-3.71,3.59s1.65,3.59,3.71,3.59c1,0,1.98-.42,2.69-1.09l.64.72c-.9.84-2.12,1.4-3.38,1.4-2.63,0-4.71-2.04-4.71-4.62s2.11-4.56,4.75-4.56c1.25,0,2.46.51,3.33,1.33Z"/>
    <path class="cls-2" d="m156.1,86.43c0,2.56-2.11,4.6-4.76,4.6s-4.77-2.04-4.77-4.6,2.11-4.58,4.77-4.58,4.76,2.02,4.76,4.58Zm-8.48,0c0,2,1.69,3.6,3.72,3.6s3.69-1.6,3.69-3.6-1.66-3.59-3.69-3.59-3.72,1.59-3.72,3.59Z"/>
    <path class="cls-2" d="m164.49,90.98l-5.46-7.31v7.31h-1.04v-9.1h1.08l5.46,7.32v-7.32h1.03v9.1h-1.07Z"/>
    <path class="cls-2" d="m173.92,82.68l-.44.98c-.82-.55-1.78-.77-2.51-.77-1.17,0-1.94.44-1.94,1.21,0,2.34,5.12,1.12,5.11,4.42,0,1.52-1.34,2.5-3.29,2.5-1.33,0-2.63-.57-3.48-1.39l.47-.94c.84.82,2,1.29,3.03,1.29,1.31,0,2.13-.53,2.13-1.4.01-2.39-5.11-1.12-5.11-4.38,0-1.43,1.26-2.35,3.15-2.35,1.05,0,2.13.34,2.89.84Z"/>
    <path class="cls-2" d="m183.71,87.23c0,2.37-1.43,3.8-3.81,3.8s-3.84-1.43-3.84-3.8v-5.36h1.04v5.36c0,1.77,1.07,2.8,2.8,2.8s2.77-1.03,2.77-2.8v-5.36h1.04v5.36Z"/>
    <path class="cls-2" d="m191.29,89.99v.99h-5.03v-9.1h1.04v8.11h3.99Z"/>
    <path class="cls-2" d="m195.75,82.88v8.1h-1.04v-8.1h-2.96v-1h6.98v1h-2.98Z"/>
    <path class="cls-2" d="m208.32,86.43c0,2.56-2.11,4.6-4.76,4.6s-4.77-2.04-4.77-4.6,2.11-4.58,4.77-4.58,4.76,2.02,4.76,4.58Zm-8.48,0c0,2,1.69,3.6,3.72,3.6s3.69-1.6,3.69-3.6-1.66-3.59-3.69-3.59-3.72,1.59-3.72,3.59Z"/>
    <path class="cls-2" d="m214.28,88.08c-.19.01-.4.03-.61.03h-2.42v2.87h-1.04v-9.1h3.46c2.27,0,3.59,1.12,3.59,3.06,0,1.51-.73,2.52-2.04,2.95l2.13,3.09h-1.18l-1.89-2.9Zm-.61-.97c1.65,0,2.59-.73,2.59-2.15s-.94-2.08-2.59-2.08h-2.42v4.23h2.42Z"/>
    <path class="cls-2" d="m220.41,80.75h-.97l1.56-1.77,1.03.49-1.61,1.27Zm-.79,10.23v-9.1h1.04v9.1h-1.04Z"/>
    <path class="cls-2" d="m224.2,88.68l-1.01,2.3h-1.11l4.08-9.1h1.08l4.07,9.1h-1.13l-1.01-2.3h-4.97Zm2.47-5.62l-2.03,4.61h4.08l-2.05-4.61Z"/>
    <path class="cls-2" d="m237.35,82.88v2.99h4.59v1h-4.59v3.12h5.3v.99h-6.34v-9.1h6.18v1h-5.14Z"/>
    <path class="cls-2" d="m251.27,90.98l-5.46-7.31v7.31h-1.04v-9.1h1.08l5.46,7.32v-7.32h1.03v9.1h-1.07Z"/>
    <path class="cls-2" d="m265.93,86.53v3.3c-.9.72-2.16,1.2-3.38,1.2-2.64,0-4.75-2.04-4.75-4.6s2.12-4.58,4.8-4.58c1.26,0,2.48.48,3.35,1.25l-.6.78c-.74-.66-1.74-1.05-2.76-1.05-2.08,0-3.74,1.6-3.74,3.6s1.68,3.61,3.76,3.61c.82,0,1.69-.29,2.39-.77v-2.74h.92Z"/>
    <path class="cls-2" d="m269.49,82.88v2.99h4.59v1h-4.59v3.12h5.3v.99h-6.34v-9.1h6.18v1h-5.14Z"/>
    <path class="cls-2" d="m282.51,82.68l-.44.98c-.82-.55-1.78-.77-2.51-.77-1.17,0-1.94.44-1.94,1.21,0,2.34,5.12,1.12,5.11,4.42,0,1.52-1.34,2.5-3.29,2.5-1.33,0-2.63-.57-3.48-1.39l.47-.94c.84.82,2,1.29,3.03,1.29,1.31,0,2.13-.53,2.13-1.4.01-2.39-5.11-1.12-5.11-4.38,0-1.43,1.26-2.35,3.15-2.35,1.05,0,2.13.34,2.89.84Z"/>
    <path class="cls-2" d="m287.63,82.88v8.1h-1.04v-8.1h-2.96v-1h6.98v1h-2.98Z"/>
    <path class="cls-2" d="m292.11,90.98v-9.1h1.04v9.1h-1.04Z"/>
    <path class="cls-2" d="m304.58,86.43c0,2.56-2.11,4.6-4.76,4.6s-4.77-2.04-4.77-4.6,2.11-4.58,4.77-4.58,4.76,2.02,4.76,4.58Zm-8.48,0c0,2,1.69,3.6,3.72,3.6s3.69-1.6,3.69-3.6-1.66-3.59-3.69-3.59-3.72,1.59-3.72,3.59Zm3.95-5.68h-.98l1.56-1.77,1.03.49-1.61,1.27Z"/>
    <path class="cls-2" d="m312.98,90.98l-5.46-7.31v7.31h-1.04v-9.1h1.08l5.46,7.32v-7.32h1.03v9.1h-1.07Z"/>
    <path class="cls-2" d="m324.06,81.88c2.65,0,4.68,1.96,4.68,4.55s-2.04,4.55-4.72,4.55h-3.64v-9.1h3.68Zm-2.64,8.11h2.65c2.03,0,3.61-1.52,3.61-3.55s-1.61-3.56-3.65-3.56h-2.61v7.11Z"/>
    <path class="cls-2" d="m331.67,82.88v2.99h4.59v1h-4.59v3.12h5.3v.99h-6.34v-9.1h6.18v1h-5.14Z"/>
    <path class="cls-2" d="m343.7,82.88v2.99h4.59v1h-4.59v3.12h5.3v.99h-6.34v-9.1h6.18v1h-5.14Z"/>
    <path class="cls-2" d="m359.36,90.98v-7.5s-3.33,6.54-3.33,6.54h-.62l-3.3-6.54v7.5h-.99v-9.1h1.29l3.33,6.55,3.31-6.55h1.27v9.1h-.96Z"/>
    <path class="cls-2" d="m366.51,81.88c2.25,0,3.55,1.12,3.55,3.06s-1.3,3.17-3.55,3.17h-2.38v2.87h-1.04v-9.1h3.42Zm-2.38,5.23h2.34c1.64,0,2.59-.73,2.59-2.15s-.95-2.08-2.59-2.08h-2.34v4.23Z"/>
    <path class="cls-2" d="m375.86,88.08c-.19.01-.4.03-.61.03h-2.42v2.87h-1.04v-9.1h3.46c2.27,0,3.59,1.12,3.59,3.06,0,1.51-.73,2.52-2.04,2.95l2.13,3.09h-1.18l-1.89-2.9Zm-.61-.97c1.65,0,2.59-.73,2.59-2.15s-.94-2.08-2.59-2.08h-2.42v4.23h2.42Z"/>
    <path class="cls-2" d="m382.23,82.88v2.99h4.59v1h-4.59v3.12h5.3v.99h-6.34v-9.1h6.18v1h-5.14Z"/>
    <path class="cls-2" d="m395.24,82.68l-.44.98c-.82-.55-1.78-.77-2.51-.77-1.17,0-1.94.44-1.94,1.21,0,2.34,5.12,1.12,5.11,4.42,0,1.52-1.34,2.5-3.29,2.5-1.33,0-2.63-.57-3.48-1.39l.47-.94c.85.82,2,1.29,3.03,1.29,1.31,0,2.13-.53,2.13-1.4.01-2.39-5.11-1.12-5.11-4.38,0-1.43,1.26-2.35,3.15-2.35,1.05,0,2.13.34,2.89.84Z"/>
    <path class="cls-2" d="m398.29,88.68l-1.01,2.3h-1.11l4.08-9.1h1.08l4.07,9.1h-1.13l-1.01-2.3h-4.97Zm2.47-5.62l-2.03,4.61h4.08l-2.05-4.61Z"/>
    <path class="cls-2" d="m412.31,82.68l-.44.98c-.82-.55-1.78-.77-2.51-.77-1.17,0-1.94.44-1.94,1.21,0,2.34,5.12,1.12,5.11,4.42,0,1.52-1.34,2.5-3.29,2.5-1.33,0-2.63-.57-3.48-1.39l.47-.94c.85.82,2,1.29,3.03,1.29,1.31,0,2.13-.53,2.13-1.4.01-2.39-5.11-1.12-5.11-4.38,0-1.43,1.26-2.35,3.15-2.35,1.05,0,2.13.34,2.89.84Z"/>
  </g>
  <g>
    <path class="cls-2" d="m146.01,53.83c3.85,0,6.46-1.97,7.7-6.17l7.75,2.17c-2.17,6.81-6.91,10.91-15.45,10.91-10.86,0-17.17-7.8-17.17-18.51s6.07-18.51,16.93-18.51c8.04,0,13.92,3.85,15.69,10.96l-7.75,2.17c-1.04-4.44-4.1-6.22-7.94-6.22-5.43,0-8.78,4.34-8.78,11.6s3.6,11.6,9.03,11.6Z"/>
    <path class="cls-2" d="m171.97,60.74c-4.64,0-8.54-2.52-8.54-7.25,0-5.53,3.85-7.6,10.07-8.34,2.66-.3,4.24-.59,5.53-1.18v-.59c0-1.68-.94-3.75-4.05-3.75-2.86,0-4,1.92-4.49,3.8l-6.27-2.07c1.28-5.92,6.32-7.75,11.1-7.75,6.56,0,11.1,2.96,11.1,10.91v10.26c0,2.62.59,4.29,1.48,5.23h-7.45c-.74-.64-1.04-1.83-1.13-2.66-2.12,2.57-4.29,3.41-7.35,3.41Zm7.06-12.34c-.89.35-2.07.79-4.54,1.28-2.27.44-3.75,1.28-3.65,3.31.05,1.14.74,2.22,2.86,2.22,2.32,0,4.49-1.63,5.33-3.36v-3.45Z"/>
    <path class="cls-2" d="m192.11,60v-25.66h6.96v4.44c1.63-3.45,3.31-5.18,7.01-5.18,1.97,0,3.36.35,4.54,1.28l-1.09,6.61c-.99-.49-2.12-.99-3.65-.99-4.24,0-6.37,3.11-6.37,8.09v11.4h-7.4Z"/>
    <path class="cls-2" d="m213.82,60V25.71l7.4-1.97v36.27h-7.4Z"/>
    <path class="cls-2" d="m237.9,33.6c6.86,0,12.73,4.1,12.73,13.57s-5.87,13.57-12.73,13.57-12.73-4.1-12.73-13.57,5.87-13.57,12.73-13.57Zm0,20.97c3.4,0,5.33-2.62,5.33-7.4s-1.92-7.4-5.33-7.4-5.33,2.62-5.33,7.4,1.92,7.4,5.33,7.4Z"/>
    <path class="cls-2" d="m259.27,51.56c.3,2.22,1.92,3.5,4.69,3.5,2.02,0,4.1-.49,4.1-2.57,0-1.18-.94-1.78-1.97-2.02l-6.07-1.33c-3.36-.74-6.27-3.11-6.27-7.35,0-5.87,4.89-8.19,10.17-8.19,6.12,0,9.82,3.5,9.97,7.4l-6.22,1.09c-.35-2.12-2.17-2.81-4-2.81-2.02,0-3.7.59-3.7,2.32,0,.84.59,1.53,1.88,1.78l5.87,1.23c2.81.59,6.76,2.42,6.76,7.7,0,5.68-4.54,8.44-10.66,8.44s-10.21-3.45-10.71-8.14l6.17-1.04Z"/>
    <path class="cls-2" d="m292.88,60V24.47h7.9v35.53h-7.9Z"/>
    <path class="cls-2" d="m317.71,54.57c2.37,0,4-1.23,4.54-4.24l7.3,1.04c-1.38,6.86-6.32,9.38-11.84,9.38-6.61,0-12.24-4.1-12.24-13.57s5.63-13.57,12.24-13.57c5.53,0,10.46,2.57,11.84,9.43l-7.25,1.09c-.54-3.06-2.22-4.34-4.59-4.34-3.06,0-4.84,2.62-4.84,7.4s1.63,7.4,4.84,7.4Z"/>
    <path class="cls-2" d="m340.8,60.74c-4.64,0-8.54-2.52-8.54-7.25,0-5.53,3.85-7.6,10.07-8.34,2.66-.3,4.24-.59,5.53-1.18v-.59c0-1.68-.94-3.75-4.05-3.75-2.86,0-4,1.92-4.49,3.8l-6.27-2.07c1.28-5.92,6.32-7.75,11.1-7.75,6.56,0,11.1,2.96,11.1,10.91v10.26c0,2.62.59,4.29,1.48,5.23h-7.45c-.74-.64-1.04-1.83-1.13-2.66-2.12,2.57-4.29,3.41-7.35,3.41Zm7.06-12.34c-.89.35-2.07.79-4.54,1.28-2.27.44-3.75,1.28-3.65,3.31.05,1.14.74,2.22,2.86,2.22,2.32,0,4.49-1.63,5.33-3.36v-3.45Z"/>
    <path class="cls-2" d="m360.94,60v-25.66h6.96v4.44c1.63-3.45,3.31-5.18,7.01-5.18,1.97,0,3.36.35,4.54,1.28l-1.09,6.61c-.99-.49-2.12-.99-3.65-.99-4.24,0-6.37,3.11-6.37,8.09v11.4h-7.4Z"/>
    <path class="cls-2" d="m405.36,24.47v35.53h-6.91v-3.01c-1.48,2.47-3.8,3.75-6.71,3.75-6.12,0-11.05-4.59-11.05-13.57s5.18-13.57,11.3-13.57c2.07,0,4.49.64,5.97,2.96v-12.09h7.4Zm-12.04,15.3c-3.16,0-5.23,2.37-5.23,7.4s2.27,7.4,5.18,7.4,5.23-2.37,5.23-7.4-2.02-7.4-5.18-7.4Z"/>
    <path class="cls-2" d="m410.79,31.18v-6.71h7.4v6.71h-7.4Zm0,28.82v-25.66h7.4v25.66h-7.4Z"/>
  </g>
</svg>